<mxfile host="app.diagrams.net" agent="Mozilla/5.0 (Windows NT 10.0; Win64; x64) AppleWebKit/537.36 (KHTML, like Gecko) Chrome/140.0.0.0 Safari/537.36" version="26.1.3">
  <diagram name="Page-1" id="74e2e168-ea6b-b213-b513-2b3c1d86103e">
    <mxGraphModel dx="2787" dy="908" grid="1" gridSize="10" guides="1" tooltips="1" connect="1" arrows="1" fold="1" page="1" pageScale="1" pageWidth="1100" pageHeight="850" background="none" math="0" shadow="0">
      <root>
        <mxCell id="0" />
        <mxCell id="1" parent="0" />
        <mxCell id="rtvpqQw-Y-bNc0LHo0PK-131" style="edgeStyle=orthogonalEdgeStyle;rounded=0;orthogonalLoop=1;jettySize=auto;html=1;entryX=1;entryY=0.5;entryDx=0;entryDy=0;exitX=0.5;exitY=1;exitDx=0;exitDy=0;" edge="1" parent="1" source="rtvpqQw-Y-bNc0LHo0PK-89" target="rtvpqQw-Y-bNc0LHo0PK-126">
          <mxGeometry relative="1" as="geometry">
            <mxPoint x="650" y="940.0285714285715" as="sourcePoint" />
          </mxGeometry>
        </mxCell>
        <mxCell id="rtvpqQw-Y-bNc0LHo0PK-132" value="Collections&lt;br&gt;Reviews&lt;br&gt;Scripts" style="edgeLabel;html=1;align=center;verticalAlign=middle;resizable=0;points=[];" vertex="1" connectable="0" parent="rtvpqQw-Y-bNc0LHo0PK-131">
          <mxGeometry x="0.2667" relative="1" as="geometry">
            <mxPoint x="-62" as="offset" />
          </mxGeometry>
        </mxCell>
        <mxCell id="rtvpqQw-Y-bNc0LHo0PK-129" style="edgeStyle=orthogonalEdgeStyle;rounded=0;orthogonalLoop=1;jettySize=auto;html=1;exitX=0.5;exitY=1;exitDx=0;exitDy=0;entryX=1;entryY=0.5;entryDx=0;entryDy=0;" edge="1" parent="1" source="rtvpqQw-Y-bNc0LHo0PK-89" target="rtvpqQw-Y-bNc0LHo0PK-123">
          <mxGeometry relative="1" as="geometry">
            <mxPoint x="945" y="830.5" as="sourcePoint" />
            <mxPoint x="340" y="1110.5" as="targetPoint" />
          </mxGeometry>
        </mxCell>
        <mxCell id="rtvpqQw-Y-bNc0LHo0PK-130" value="Collections&lt;div&gt;Reviews&lt;/div&gt;" style="edgeLabel;html=1;align=center;verticalAlign=middle;resizable=0;points=[];" vertex="1" connectable="0" parent="rtvpqQw-Y-bNc0LHo0PK-129">
          <mxGeometry x="-0.0597" y="1" relative="1" as="geometry">
            <mxPoint x="-159" y="-1" as="offset" />
          </mxGeometry>
        </mxCell>
        <mxCell id="rtvpqQw-Y-bNc0LHo0PK-3" style="edgeStyle=orthogonalEdgeStyle;rounded=0;orthogonalLoop=1;jettySize=auto;html=1;" edge="1" parent="1" source="rtvpqQw-Y-bNc0LHo0PK-1" target="rtvpqQw-Y-bNc0LHo0PK-2">
          <mxGeometry relative="1" as="geometry" />
        </mxCell>
        <mxCell id="rtvpqQw-Y-bNc0LHo0PK-4" value="&lt;font style=&quot;font-size: 9px;&quot;&gt;Article Queue&lt;/font&gt;" style="edgeLabel;html=1;align=center;verticalAlign=middle;resizable=0;points=[];" vertex="1" connectable="0" parent="rtvpqQw-Y-bNc0LHo0PK-3">
          <mxGeometry x="-0.0606" relative="1" as="geometry">
            <mxPoint as="offset" />
          </mxGeometry>
        </mxCell>
        <mxCell id="rtvpqQw-Y-bNc0LHo0PK-1" value="News Feed&amp;nbsp;&lt;div&gt;(Articles/hr)&lt;/div&gt;" style="whiteSpace=wrap;html=1;aspect=fixed;fillColor=#dae8fc;strokeColor=#6c8ebf;" vertex="1" parent="1">
          <mxGeometry x="20" y="100" width="90" height="90" as="geometry" />
        </mxCell>
        <mxCell id="rtvpqQw-Y-bNc0LHo0PK-7" style="edgeStyle=orthogonalEdgeStyle;rounded=0;orthogonalLoop=1;jettySize=auto;html=1;" edge="1" parent="1" source="rtvpqQw-Y-bNc0LHo0PK-2" target="rtvpqQw-Y-bNc0LHo0PK-28">
          <mxGeometry relative="1" as="geometry" />
        </mxCell>
        <mxCell id="rtvpqQw-Y-bNc0LHo0PK-33" value="&lt;font style=&quot;font-size: 9px;&quot;&gt;Articles Queue&lt;/font&gt;" style="edgeLabel;html=1;align=center;verticalAlign=middle;resizable=0;points=[];" vertex="1" connectable="0" parent="rtvpqQw-Y-bNc0LHo0PK-7">
          <mxGeometry x="0.2216" y="1" relative="1" as="geometry">
            <mxPoint as="offset" />
          </mxGeometry>
        </mxCell>
        <mxCell id="rtvpqQw-Y-bNc0LHo0PK-2" value="Reviewer&lt;br&gt;(Workers Active)&lt;br&gt;(Reviews/hr)" style="whiteSpace=wrap;html=1;aspect=fixed;fillColor=#dae8fc;strokeColor=#6c8ebf;" vertex="1" parent="1">
          <mxGeometry x="240" y="105" width="80" height="80" as="geometry" />
        </mxCell>
        <mxCell id="rtvpqQw-Y-bNc0LHo0PK-6" value="" style="swimlane;startSize=0;fillColor=#60a917;strokeColor=#2D7600;fontColor=#ffffff;" vertex="1" parent="1">
          <mxGeometry x="490" y="45" width="420" height="175" as="geometry" />
        </mxCell>
        <mxCell id="rtvpqQw-Y-bNc0LHo0PK-8" value="Containers" style="text;html=1;align=center;verticalAlign=middle;whiteSpace=wrap;rounded=0;" vertex="1" parent="rtvpqQw-Y-bNc0LHo0PK-6">
          <mxGeometry x="70" y="5" width="60" height="30" as="geometry" />
        </mxCell>
        <mxCell id="rtvpqQw-Y-bNc0LHo0PK-10" value="" style="swimlane;startSize=0;" vertex="1" parent="rtvpqQw-Y-bNc0LHo0PK-6">
          <mxGeometry x="10" y="35" width="140" height="115" as="geometry" />
        </mxCell>
        <mxCell id="rtvpqQw-Y-bNc0LHo0PK-73" value="" style="whiteSpace=wrap;html=1;aspect=fixed;fillColor=#d5e8d4;strokeColor=#82b366;" vertex="1" parent="rtvpqQw-Y-bNc0LHo0PK-10">
          <mxGeometry x="20" y="7.5" width="102.5" height="102.5" as="geometry" />
        </mxCell>
        <mxCell id="rtvpqQw-Y-bNc0LHo0PK-11" value="Container" style="text;html=1;align=center;verticalAlign=middle;whiteSpace=wrap;rounded=0;" vertex="1" parent="rtvpqQw-Y-bNc0LHo0PK-10">
          <mxGeometry x="40" y="7.5" width="60" height="25" as="geometry" />
        </mxCell>
        <mxCell id="rtvpqQw-Y-bNc0LHo0PK-17" value="Tags" style="text;html=1;align=center;verticalAlign=middle;whiteSpace=wrap;rounded=0;" vertex="1" parent="rtvpqQw-Y-bNc0LHo0PK-10">
          <mxGeometry x="10" y="30" width="60" height="30" as="geometry" />
        </mxCell>
        <mxCell id="rtvpqQw-Y-bNc0LHo0PK-18" value="Articles" style="text;html=1;align=center;verticalAlign=middle;whiteSpace=wrap;rounded=0;" vertex="1" parent="rtvpqQw-Y-bNc0LHo0PK-10">
          <mxGeometry x="70" y="30" width="60" height="30" as="geometry" />
        </mxCell>
        <mxCell id="rtvpqQw-Y-bNc0LHo0PK-26" value="Name" style="text;html=1;align=center;verticalAlign=middle;whiteSpace=wrap;rounded=0;" vertex="1" parent="rtvpqQw-Y-bNc0LHo0PK-10">
          <mxGeometry x="10" y="70" width="60" height="25" as="geometry" />
        </mxCell>
        <mxCell id="rtvpqQw-Y-bNc0LHo0PK-21" value="" style="swimlane;startSize=0;fillColor=#60a917;fontColor=#ffffff;strokeColor=#2D7600;" vertex="1" parent="rtvpqQw-Y-bNc0LHo0PK-6">
          <mxGeometry x="190" y="35" width="140" height="125" as="geometry" />
        </mxCell>
        <mxCell id="rtvpqQw-Y-bNc0LHo0PK-71" value="" style="whiteSpace=wrap;html=1;aspect=fixed;fillColor=#d5e8d4;strokeColor=#82b366;" vertex="1" parent="rtvpqQw-Y-bNc0LHo0PK-21">
          <mxGeometry x="15" y="5" width="115" height="115" as="geometry" />
        </mxCell>
        <mxCell id="rtvpqQw-Y-bNc0LHo0PK-22" value="Container" style="text;html=1;align=center;verticalAlign=middle;whiteSpace=wrap;rounded=0;" vertex="1" parent="rtvpqQw-Y-bNc0LHo0PK-21">
          <mxGeometry x="40" y="5" width="60" height="25" as="geometry" />
        </mxCell>
        <mxCell id="rtvpqQw-Y-bNc0LHo0PK-23" value="Tags" style="text;html=1;align=center;verticalAlign=middle;whiteSpace=wrap;rounded=0;" vertex="1" parent="rtvpqQw-Y-bNc0LHo0PK-21">
          <mxGeometry x="10" y="30" width="60" height="30" as="geometry" />
        </mxCell>
        <mxCell id="rtvpqQw-Y-bNc0LHo0PK-24" value="Articles" style="text;html=1;align=center;verticalAlign=middle;whiteSpace=wrap;rounded=0;" vertex="1" parent="rtvpqQw-Y-bNc0LHo0PK-21">
          <mxGeometry x="70" y="30" width="60" height="30" as="geometry" />
        </mxCell>
        <mxCell id="rtvpqQw-Y-bNc0LHo0PK-27" value="Name" style="text;html=1;align=center;verticalAlign=middle;whiteSpace=wrap;rounded=0;" vertex="1" parent="rtvpqQw-Y-bNc0LHo0PK-21">
          <mxGeometry x="10" y="75" width="60" height="25" as="geometry" />
        </mxCell>
        <mxCell id="rtvpqQw-Y-bNc0LHo0PK-41" style="edgeStyle=orthogonalEdgeStyle;rounded=0;orthogonalLoop=1;jettySize=auto;html=1;" edge="1" parent="1" source="rtvpqQw-Y-bNc0LHo0PK-28" target="rtvpqQw-Y-bNc0LHo0PK-40">
          <mxGeometry relative="1" as="geometry" />
        </mxCell>
        <mxCell id="rtvpqQw-Y-bNc0LHo0PK-28" value="AI Overseer&lt;br&gt;(Workers Active)&lt;br&gt;(Reviews/hr)" style="whiteSpace=wrap;html=1;aspect=fixed;fillColor=#dae8fc;strokeColor=#6c8ebf;" vertex="1" parent="1">
          <mxGeometry x="340" y="270" width="80" height="80" as="geometry" />
        </mxCell>
        <mxCell id="rtvpqQw-Y-bNc0LHo0PK-29" style="edgeStyle=orthogonalEdgeStyle;rounded=0;orthogonalLoop=1;jettySize=auto;html=1;entryX=0;entryY=0.429;entryDx=0;entryDy=0;entryPerimeter=0;" edge="1" parent="1" source="rtvpqQw-Y-bNc0LHo0PK-28" target="rtvpqQw-Y-bNc0LHo0PK-6">
          <mxGeometry relative="1" as="geometry" />
        </mxCell>
        <mxCell id="rtvpqQw-Y-bNc0LHo0PK-34" value="&lt;font style=&quot;font-size: 9px;&quot;&gt;Articles transferred per minute&lt;/font&gt;" style="edgeLabel;html=1;align=center;verticalAlign=middle;resizable=0;points=[];" vertex="1" connectable="0" parent="rtvpqQw-Y-bNc0LHo0PK-29">
          <mxGeometry x="-0.4793" y="1" relative="1" as="geometry">
            <mxPoint x="6" y="-47" as="offset" />
          </mxGeometry>
        </mxCell>
        <mxCell id="rtvpqQw-Y-bNc0LHo0PK-32" style="edgeStyle=orthogonalEdgeStyle;rounded=0;orthogonalLoop=1;jettySize=auto;html=1;entryX=0.5;entryY=1;entryDx=0;entryDy=0;exitX=0.509;exitY=1;exitDx=0;exitDy=0;exitPerimeter=0;" edge="1" parent="1" source="rtvpqQw-Y-bNc0LHo0PK-6" target="rtvpqQw-Y-bNc0LHo0PK-28">
          <mxGeometry relative="1" as="geometry" />
        </mxCell>
        <mxCell id="rtvpqQw-Y-bNc0LHo0PK-35" value="On Collection Ready send" style="edgeLabel;html=1;align=center;verticalAlign=middle;resizable=0;points=[];" vertex="1" connectable="0" parent="rtvpqQw-Y-bNc0LHo0PK-32">
          <mxGeometry x="0.0023" relative="1" as="geometry">
            <mxPoint as="offset" />
          </mxGeometry>
        </mxCell>
        <mxCell id="rtvpqQw-Y-bNc0LHo0PK-56" style="edgeStyle=orthogonalEdgeStyle;rounded=0;orthogonalLoop=1;jettySize=auto;html=1;exitX=0.5;exitY=1;exitDx=0;exitDy=0;" edge="1" parent="1" source="rtvpqQw-Y-bNc0LHo0PK-40" target="rtvpqQw-Y-bNc0LHo0PK-75">
          <mxGeometry relative="1" as="geometry">
            <mxPoint x="420" y="407.5" as="targetPoint" />
            <Array as="points">
              <mxPoint x="200" y="390" />
              <mxPoint x="420" y="390" />
            </Array>
          </mxGeometry>
        </mxCell>
        <mxCell id="rtvpqQw-Y-bNc0LHo0PK-57" value="No" style="edgeLabel;html=1;align=center;verticalAlign=middle;resizable=0;points=[];" vertex="1" connectable="0" parent="rtvpqQw-Y-bNc0LHo0PK-56">
          <mxGeometry x="-0.0048" y="-1" relative="1" as="geometry">
            <mxPoint as="offset" />
          </mxGeometry>
        </mxCell>
        <mxCell id="rtvpqQw-Y-bNc0LHo0PK-40" value="&lt;font style=&quot;font-size: 6px;&quot;&gt;Does a Collection Match&lt;/font&gt;&lt;div&gt;&lt;font style=&quot;font-size: 6px;&quot;&gt;&amp;nbsp;an Existing Podcast Group?&lt;/font&gt;&lt;/div&gt;" style="rhombus;whiteSpace=wrap;html=1;fillColor=#f8cecc;strokeColor=#b85450;" vertex="1" parent="1">
          <mxGeometry x="150" y="255" width="100" height="110" as="geometry" />
        </mxCell>
        <mxCell id="rtvpqQw-Y-bNc0LHo0PK-49" style="edgeStyle=orthogonalEdgeStyle;rounded=0;orthogonalLoop=1;jettySize=auto;html=1;" edge="1" parent="1" source="rtvpqQw-Y-bNc0LHo0PK-40" target="rtvpqQw-Y-bNc0LHo0PK-139">
          <mxGeometry relative="1" as="geometry">
            <mxPoint x="61" y="412" as="targetPoint" />
          </mxGeometry>
        </mxCell>
        <mxCell id="rtvpqQw-Y-bNc0LHo0PK-50" value="yes" style="edgeLabel;html=1;align=center;verticalAlign=middle;resizable=0;points=[];" vertex="1" connectable="0" parent="rtvpqQw-Y-bNc0LHo0PK-49">
          <mxGeometry x="0.0795" y="-1" relative="1" as="geometry">
            <mxPoint as="offset" />
          </mxGeometry>
        </mxCell>
        <mxCell id="rtvpqQw-Y-bNc0LHo0PK-102" style="edgeStyle=orthogonalEdgeStyle;rounded=0;orthogonalLoop=1;jettySize=auto;html=1;" edge="1" parent="1" source="rtvpqQw-Y-bNc0LHo0PK-75" target="rtvpqQw-Y-bNc0LHo0PK-89">
          <mxGeometry relative="1" as="geometry" />
        </mxCell>
        <mxCell id="rtvpqQw-Y-bNc0LHo0PK-103" value="Create a Podcast Group" style="edgeLabel;html=1;align=center;verticalAlign=middle;resizable=0;points=[];" vertex="1" connectable="0" parent="rtvpqQw-Y-bNc0LHo0PK-102">
          <mxGeometry x="-0.1789" y="2" relative="1" as="geometry">
            <mxPoint as="offset" />
          </mxGeometry>
        </mxCell>
        <mxCell id="rtvpqQw-Y-bNc0LHo0PK-75" value="&lt;br&gt;&lt;span style=&quot;color: rgb(0, 0, 0); font-family: Helvetica; font-size: 11px; font-style: normal; font-variant-ligatures: normal; font-variant-caps: normal; font-weight: 400; letter-spacing: normal; orphans: 2; text-align: center; text-indent: 0px; text-transform: none; widows: 2; word-spacing: 0px; -webkit-text-stroke-width: 0px; white-space: nowrap; background-color: rgb(255, 255, 255); text-decoration-thickness: initial; text-decoration-style: initial; text-decoration-color: initial; float: none; display: inline !important;&quot;&gt;Ai Generate Podcast to&amp;nbsp;&lt;/span&gt;&lt;div&gt;&lt;span style=&quot;color: rgb(0, 0, 0); font-family: Helvetica; font-size: 11px; font-style: normal; font-variant-ligatures: normal; font-variant-caps: normal; font-weight: 400; letter-spacing: normal; orphans: 2; text-align: center; text-indent: 0px; text-transform: none; widows: 2; word-spacing: 0px; -webkit-text-stroke-width: 0px; white-space: nowrap; background-color: rgb(255, 255, 255); text-decoration-thickness: initial; text-decoration-style: initial; text-decoration-color: initial; float: none; display: inline !important;&quot;&gt;Match Collection &lt;br&gt;assign Tags,&lt;br&gt;Presenters,&lt;br&gt;&amp;nbsp;and Generate &lt;br&gt;Podcast Name&lt;/span&gt;&lt;br&gt;&lt;br&gt;&lt;/div&gt;" style="whiteSpace=wrap;html=1;aspect=fixed;fillColor=#dae8fc;strokeColor=#6c8ebf;" vertex="1" parent="1">
          <mxGeometry x="380" y="460" width="142.5" height="142.5" as="geometry" />
        </mxCell>
        <mxCell id="rtvpqQw-Y-bNc0LHo0PK-119" style="edgeStyle=orthogonalEdgeStyle;rounded=0;orthogonalLoop=1;jettySize=auto;html=1;exitX=0;exitY=0.5;exitDx=0;exitDy=0;" edge="1" parent="1" source="rtvpqQw-Y-bNc0LHo0PK-89" target="rtvpqQw-Y-bNc0LHo0PK-117">
          <mxGeometry relative="1" as="geometry">
            <mxPoint x="650" y="910" as="sourcePoint" />
          </mxGeometry>
        </mxCell>
        <mxCell id="rtvpqQw-Y-bNc0LHo0PK-120" value="Collections" style="edgeLabel;html=1;align=center;verticalAlign=middle;resizable=0;points=[];" vertex="1" connectable="0" parent="rtvpqQw-Y-bNc0LHo0PK-119">
          <mxGeometry x="0.445" relative="1" as="geometry">
            <mxPoint x="190" y="-54" as="offset" />
          </mxGeometry>
        </mxCell>
        <mxCell id="rtvpqQw-Y-bNc0LHo0PK-184" style="edgeStyle=orthogonalEdgeStyle;rounded=0;orthogonalLoop=1;jettySize=auto;html=1;" edge="1" parent="1" source="rtvpqQw-Y-bNc0LHo0PK-89" target="rtvpqQw-Y-bNc0LHo0PK-128">
          <mxGeometry relative="1" as="geometry" />
        </mxCell>
        <mxCell id="rtvpqQw-Y-bNc0LHo0PK-89" value="" style="swimlane;startSize=0;fillColor=#dae8fc;strokeColor=#6c8ebf;" vertex="1" parent="1">
          <mxGeometry x="660" y="550" width="530" height="260" as="geometry" />
        </mxCell>
        <mxCell id="rtvpqQw-Y-bNc0LHo0PK-77" value="" style="swimlane;startSize=0;fillColor=#dae8fc;strokeColor=#6c8ebf;" vertex="1" parent="rtvpqQw-Y-bNc0LHo0PK-89">
          <mxGeometry x="20" y="50" width="215" height="192.5" as="geometry" />
        </mxCell>
        <mxCell id="rtvpqQw-Y-bNc0LHo0PK-78" value="" style="rounded=0;whiteSpace=wrap;html=1;fillColor=#dae8fc;strokeColor=#6c8ebf;" vertex="1" parent="rtvpqQw-Y-bNc0LHo0PK-77">
          <mxGeometry x="10" y="5.5" width="200" height="184.5" as="geometry" />
        </mxCell>
        <mxCell id="rtvpqQw-Y-bNc0LHo0PK-79" value="Podcast Group" style="text;html=1;align=center;verticalAlign=middle;whiteSpace=wrap;rounded=0;" vertex="1" parent="rtvpqQw-Y-bNc0LHo0PK-77">
          <mxGeometry x="77.5" y="5.5" width="92.5" height="25" as="geometry" />
        </mxCell>
        <mxCell id="rtvpqQw-Y-bNc0LHo0PK-81" value="Collection" style="text;html=1;align=center;verticalAlign=middle;whiteSpace=wrap;rounded=0;" vertex="1" parent="rtvpqQw-Y-bNc0LHo0PK-77">
          <mxGeometry x="15" y="27.5" width="60" height="30" as="geometry" />
        </mxCell>
        <mxCell id="rtvpqQw-Y-bNc0LHo0PK-82" value="Presenter Reviews" style="text;html=1;align=center;verticalAlign=middle;whiteSpace=wrap;rounded=0;" vertex="1" parent="rtvpqQw-Y-bNc0LHo0PK-77">
          <mxGeometry x="10" y="70" width="60" height="30" as="geometry" />
        </mxCell>
        <mxCell id="rtvpqQw-Y-bNc0LHo0PK-83" value="Name" style="text;html=1;align=center;verticalAlign=middle;whiteSpace=wrap;rounded=0;" vertex="1" parent="rtvpqQw-Y-bNc0LHo0PK-77">
          <mxGeometry x="90" y="30" width="60" height="25" as="geometry" />
        </mxCell>
        <mxCell id="rtvpqQw-Y-bNc0LHo0PK-84" value="Writer" style="text;html=1;align=center;verticalAlign=middle;whiteSpace=wrap;rounded=0;" vertex="1" parent="rtvpqQw-Y-bNc0LHo0PK-77">
          <mxGeometry x="10" y="100" width="60" height="30" as="geometry" />
        </mxCell>
        <mxCell id="rtvpqQw-Y-bNc0LHo0PK-85" value="Scripts" style="text;html=1;align=center;verticalAlign=middle;whiteSpace=wrap;rounded=0;" vertex="1" parent="rtvpqQw-Y-bNc0LHo0PK-77">
          <mxGeometry x="75" y="70" width="60" height="30" as="geometry" />
        </mxCell>
        <mxCell id="rtvpqQw-Y-bNc0LHo0PK-86" value="Editor Final Script" style="text;html=1;align=center;verticalAlign=middle;whiteSpace=wrap;rounded=0;" vertex="1" parent="rtvpqQw-Y-bNc0LHo0PK-77">
          <mxGeometry x="40" y="122.5" width="140" height="30" as="geometry" />
        </mxCell>
        <mxCell id="rtvpqQw-Y-bNc0LHo0PK-87" value="mp3 podcast titled after the podcast." style="text;html=1;align=center;verticalAlign=middle;whiteSpace=wrap;rounded=0;" vertex="1" parent="rtvpqQw-Y-bNc0LHo0PK-77">
          <mxGeometry x="20" y="152.5" width="180" height="30" as="geometry" />
        </mxCell>
        <mxCell id="rtvpqQw-Y-bNc0LHo0PK-88" value="Schedule" style="text;html=1;align=center;verticalAlign=middle;whiteSpace=wrap;rounded=0;" vertex="1" parent="rtvpqQw-Y-bNc0LHo0PK-77">
          <mxGeometry x="125" y="70" width="90" height="30" as="geometry" />
        </mxCell>
        <mxCell id="rtvpqQw-Y-bNc0LHo0PK-134" value="Length" style="text;html=1;align=center;verticalAlign=middle;whiteSpace=wrap;rounded=0;" vertex="1" parent="rtvpqQw-Y-bNc0LHo0PK-77">
          <mxGeometry x="140" y="100" width="60" height="30" as="geometry" />
        </mxCell>
        <mxCell id="rtvpqQw-Y-bNc0LHo0PK-101" value="Podcast Groups" style="text;html=1;align=center;verticalAlign=middle;whiteSpace=wrap;rounded=0;" vertex="1" parent="rtvpqQw-Y-bNc0LHo0PK-89">
          <mxGeometry x="220" y="10" width="92.5" height="25" as="geometry" />
        </mxCell>
        <mxCell id="rtvpqQw-Y-bNc0LHo0PK-104" value="" style="swimlane;startSize=0;fillColor=#dae8fc;strokeColor=#6c8ebf;" vertex="1" parent="1">
          <mxGeometry x="930" y="602.5" width="215" height="192.5" as="geometry" />
        </mxCell>
        <mxCell id="rtvpqQw-Y-bNc0LHo0PK-105" value="" style="rounded=0;whiteSpace=wrap;html=1;fillColor=#dae8fc;strokeColor=#6c8ebf;" vertex="1" parent="rtvpqQw-Y-bNc0LHo0PK-104">
          <mxGeometry x="10" y="5.5" width="200" height="184.5" as="geometry" />
        </mxCell>
        <mxCell id="rtvpqQw-Y-bNc0LHo0PK-106" value="Podcast Group" style="text;html=1;align=center;verticalAlign=middle;whiteSpace=wrap;rounded=0;" vertex="1" parent="rtvpqQw-Y-bNc0LHo0PK-104">
          <mxGeometry x="63.75" y="5.5" width="92.5" height="25" as="geometry" />
        </mxCell>
        <mxCell id="rtvpqQw-Y-bNc0LHo0PK-107" value="Tags" style="text;html=1;align=center;verticalAlign=middle;whiteSpace=wrap;rounded=0;" vertex="1" parent="rtvpqQw-Y-bNc0LHo0PK-104">
          <mxGeometry x="10" y="30" width="60" height="30" as="geometry" />
        </mxCell>
        <mxCell id="rtvpqQw-Y-bNc0LHo0PK-108" value="Collection" style="text;html=1;align=center;verticalAlign=middle;whiteSpace=wrap;rounded=0;" vertex="1" parent="rtvpqQw-Y-bNc0LHo0PK-104">
          <mxGeometry x="70" y="30" width="60" height="30" as="geometry" />
        </mxCell>
        <mxCell id="rtvpqQw-Y-bNc0LHo0PK-109" value="Presenter Reviews" style="text;html=1;align=center;verticalAlign=middle;whiteSpace=wrap;rounded=0;" vertex="1" parent="rtvpqQw-Y-bNc0LHo0PK-104">
          <mxGeometry x="10" y="70" width="60" height="30" as="geometry" />
        </mxCell>
        <mxCell id="rtvpqQw-Y-bNc0LHo0PK-110" value="Name" style="text;html=1;align=center;verticalAlign=middle;whiteSpace=wrap;rounded=0;" vertex="1" parent="rtvpqQw-Y-bNc0LHo0PK-104">
          <mxGeometry x="140" y="30" width="60" height="25" as="geometry" />
        </mxCell>
        <mxCell id="rtvpqQw-Y-bNc0LHo0PK-111" value="Writer" style="text;html=1;align=center;verticalAlign=middle;whiteSpace=wrap;rounded=0;" vertex="1" parent="rtvpqQw-Y-bNc0LHo0PK-104">
          <mxGeometry x="10" y="100" width="60" height="30" as="geometry" />
        </mxCell>
        <mxCell id="rtvpqQw-Y-bNc0LHo0PK-112" value="Scripts" style="text;html=1;align=center;verticalAlign=middle;whiteSpace=wrap;rounded=0;" vertex="1" parent="rtvpqQw-Y-bNc0LHo0PK-104">
          <mxGeometry x="75" y="70" width="60" height="30" as="geometry" />
        </mxCell>
        <mxCell id="rtvpqQw-Y-bNc0LHo0PK-113" value="Editor Final Script" style="text;html=1;align=center;verticalAlign=middle;whiteSpace=wrap;rounded=0;" vertex="1" parent="rtvpqQw-Y-bNc0LHo0PK-104">
          <mxGeometry x="40" y="122.5" width="140" height="30" as="geometry" />
        </mxCell>
        <mxCell id="rtvpqQw-Y-bNc0LHo0PK-114" value="mp3 podcast titled after the podcast." style="text;html=1;align=center;verticalAlign=middle;whiteSpace=wrap;rounded=0;" vertex="1" parent="rtvpqQw-Y-bNc0LHo0PK-104">
          <mxGeometry x="20" y="152.5" width="180" height="30" as="geometry" />
        </mxCell>
        <mxCell id="rtvpqQw-Y-bNc0LHo0PK-115" value="Schedule" style="text;html=1;align=center;verticalAlign=middle;whiteSpace=wrap;rounded=0;" vertex="1" parent="rtvpqQw-Y-bNc0LHo0PK-104">
          <mxGeometry x="125" y="70" width="90" height="30" as="geometry" />
        </mxCell>
        <mxCell id="rtvpqQw-Y-bNc0LHo0PK-135" value="Length" style="text;html=1;align=center;verticalAlign=middle;whiteSpace=wrap;rounded=0;" vertex="1" parent="rtvpqQw-Y-bNc0LHo0PK-104">
          <mxGeometry x="140" y="100" width="60" height="30" as="geometry" />
        </mxCell>
        <mxCell id="rtvpqQw-Y-bNc0LHo0PK-118" style="edgeStyle=orthogonalEdgeStyle;rounded=0;orthogonalLoop=1;jettySize=auto;html=1;exitX=1;exitY=0.5;exitDx=0;exitDy=0;" edge="1" parent="1" source="rtvpqQw-Y-bNc0LHo0PK-116" target="rtvpqQw-Y-bNc0LHo0PK-117">
          <mxGeometry relative="1" as="geometry" />
        </mxCell>
        <mxCell id="rtvpqQw-Y-bNc0LHo0PK-116" value="Generate Podcast Service starts" style="whiteSpace=wrap;html=1;aspect=fixed;fillColor=#dae8fc;strokeColor=#6c8ebf;" vertex="1" parent="1">
          <mxGeometry x="160" y="730" width="80" height="80" as="geometry" />
        </mxCell>
        <mxCell id="rtvpqQw-Y-bNc0LHo0PK-124" style="edgeStyle=orthogonalEdgeStyle;rounded=0;orthogonalLoop=1;jettySize=auto;html=1;" edge="1" parent="1" source="rtvpqQw-Y-bNc0LHo0PK-117" target="rtvpqQw-Y-bNc0LHo0PK-123">
          <mxGeometry relative="1" as="geometry" />
        </mxCell>
        <mxCell id="rtvpqQw-Y-bNc0LHo0PK-125" value="reviews queue" style="edgeLabel;html=1;align=center;verticalAlign=middle;resizable=0;points=[];" vertex="1" connectable="0" parent="rtvpqQw-Y-bNc0LHo0PK-124">
          <mxGeometry x="-0.1524" relative="1" as="geometry">
            <mxPoint as="offset" />
          </mxGeometry>
        </mxCell>
        <mxCell id="rtvpqQw-Y-bNc0LHo0PK-117" value="Presenter Reviews Collection&lt;br&gt;(Reviews/Hr)" style="whiteSpace=wrap;html=1;aspect=fixed;fillColor=#dae8fc;strokeColor=#6c8ebf;" vertex="1" parent="1">
          <mxGeometry x="240" y="900" width="80" height="80" as="geometry" />
        </mxCell>
        <mxCell id="rtvpqQw-Y-bNc0LHo0PK-127" style="edgeStyle=orthogonalEdgeStyle;rounded=0;orthogonalLoop=1;jettySize=auto;html=1;" edge="1" parent="1" source="rtvpqQw-Y-bNc0LHo0PK-123" target="rtvpqQw-Y-bNc0LHo0PK-126">
          <mxGeometry relative="1" as="geometry" />
        </mxCell>
        <mxCell id="rtvpqQw-Y-bNc0LHo0PK-123" value="Writer&lt;br&gt;produces script&lt;br&gt;(Scripts/Hr)" style="whiteSpace=wrap;html=1;aspect=fixed;fillColor=#dae8fc;strokeColor=#6c8ebf;" vertex="1" parent="1">
          <mxGeometry x="240" y="1050" width="80" height="80" as="geometry" />
        </mxCell>
        <mxCell id="rtvpqQw-Y-bNc0LHo0PK-136" style="edgeStyle=orthogonalEdgeStyle;rounded=0;orthogonalLoop=1;jettySize=auto;html=1;exitX=0.5;exitY=1;exitDx=0;exitDy=0;" edge="1" parent="1" source="rtvpqQw-Y-bNc0LHo0PK-126" target="rtvpqQw-Y-bNc0LHo0PK-133">
          <mxGeometry relative="1" as="geometry" />
        </mxCell>
        <mxCell id="rtvpqQw-Y-bNc0LHo0PK-126" value="Editor&lt;br&gt;Reviews Script and produces Final Script&lt;br&gt;(Scripts/Day)" style="whiteSpace=wrap;html=1;aspect=fixed;fillColor=#dae8fc;strokeColor=#6c8ebf;" vertex="1" parent="1">
          <mxGeometry x="240" y="1180" width="80" height="80" as="geometry" />
        </mxCell>
        <mxCell id="rtvpqQw-Y-bNc0LHo0PK-128" value="Publish Service&amp;nbsp;&lt;br&gt;(Future)" style="whiteSpace=wrap;html=1;aspect=fixed;fillColor=#a20025;fontColor=#ffffff;strokeColor=#6F0000;" vertex="1" parent="1">
          <mxGeometry x="1260" y="1140" width="80" height="80" as="geometry" />
        </mxCell>
        <mxCell id="rtvpqQw-Y-bNc0LHo0PK-138" style="edgeStyle=orthogonalEdgeStyle;rounded=0;orthogonalLoop=1;jettySize=auto;html=1;entryX=0;entryY=0.375;entryDx=0;entryDy=0;entryPerimeter=0;" edge="1" parent="1" source="rtvpqQw-Y-bNc0LHo0PK-133" target="rtvpqQw-Y-bNc0LHo0PK-123">
          <mxGeometry relative="1" as="geometry">
            <mxPoint x="200" y="1490" as="targetPoint" />
          </mxGeometry>
        </mxCell>
        <mxCell id="rtvpqQw-Y-bNc0LHo0PK-145" value="NO" style="edgeLabel;html=1;align=center;verticalAlign=middle;resizable=0;points=[];" vertex="1" connectable="0" parent="rtvpqQw-Y-bNc0LHo0PK-138">
          <mxGeometry x="-0.0945" y="-2" relative="1" as="geometry">
            <mxPoint as="offset" />
          </mxGeometry>
        </mxCell>
        <mxCell id="rtvpqQw-Y-bNc0LHo0PK-149" style="edgeStyle=orthogonalEdgeStyle;rounded=0;orthogonalLoop=1;jettySize=auto;html=1;exitX=1;exitY=0.5;exitDx=0;exitDy=0;entryX=0;entryY=0.5;entryDx=0;entryDy=0;" edge="1" parent="1" source="rtvpqQw-Y-bNc0LHo0PK-133" target="rtvpqQw-Y-bNc0LHo0PK-148">
          <mxGeometry relative="1" as="geometry" />
        </mxCell>
        <mxCell id="rtvpqQw-Y-bNc0LHo0PK-150" value="Yes" style="edgeLabel;html=1;align=center;verticalAlign=middle;resizable=0;points=[];" vertex="1" connectable="0" parent="rtvpqQw-Y-bNc0LHo0PK-149">
          <mxGeometry x="0.0508" relative="1" as="geometry">
            <mxPoint as="offset" />
          </mxGeometry>
        </mxCell>
        <mxCell id="rtvpqQw-Y-bNc0LHo0PK-133" value="&lt;font style=&quot;font-size: 8px;&quot;&gt;Does Script match:&lt;br&gt;Person 1, Person 2, Person 3.... script?&lt;br&gt;Does Script match length of Podcast?&lt;br&gt;&lt;/font&gt;" style="rhombus;whiteSpace=wrap;html=1;fillColor=#f8cecc;strokeColor=#b85450;" vertex="1" parent="1">
          <mxGeometry x="350" y="1340" width="320" height="170" as="geometry" />
        </mxCell>
        <mxCell id="rtvpqQw-Y-bNc0LHo0PK-140" style="edgeStyle=orthogonalEdgeStyle;rounded=0;orthogonalLoop=1;jettySize=auto;html=1;" edge="1" parent="1" source="rtvpqQw-Y-bNc0LHo0PK-139" target="rtvpqQw-Y-bNc0LHo0PK-116">
          <mxGeometry relative="1" as="geometry" />
        </mxCell>
        <mxCell id="rtvpqQw-Y-bNc0LHo0PK-141" value="Podcast group Assigned" style="edgeLabel;html=1;align=center;verticalAlign=middle;resizable=0;points=[];" vertex="1" connectable="0" parent="rtvpqQw-Y-bNc0LHo0PK-140">
          <mxGeometry x="0.0464" relative="1" as="geometry">
            <mxPoint y="-282" as="offset" />
          </mxGeometry>
        </mxCell>
        <mxCell id="rtvpqQw-Y-bNc0LHo0PK-144" style="edgeStyle=orthogonalEdgeStyle;rounded=0;orthogonalLoop=1;jettySize=auto;html=1;" edge="1" parent="1" source="rtvpqQw-Y-bNc0LHo0PK-139" target="rtvpqQw-Y-bNc0LHo0PK-143">
          <mxGeometry relative="1" as="geometry" />
        </mxCell>
        <mxCell id="rtvpqQw-Y-bNc0LHo0PK-139" value="Is it time for Podcast to be produced" style="rhombus;whiteSpace=wrap;html=1;fillColor=#f8cecc;strokeColor=#b85450;" vertex="1" parent="1">
          <mxGeometry x="145" y="540" width="110" height="110" as="geometry" />
        </mxCell>
        <mxCell id="rtvpqQw-Y-bNc0LHo0PK-143" value="END" style="rounded=1;whiteSpace=wrap;html=1;fillColor=#a20025;strokeColor=#6F0000;fontColor=#ffffff;" vertex="1" parent="1">
          <mxGeometry x="-70" y="565" width="120" height="60" as="geometry" />
        </mxCell>
        <mxCell id="rtvpqQw-Y-bNc0LHo0PK-183" style="edgeStyle=orthogonalEdgeStyle;rounded=0;orthogonalLoop=1;jettySize=auto;html=1;entryX=0.5;entryY=1;entryDx=0;entryDy=0;" edge="1" parent="1" source="rtvpqQw-Y-bNc0LHo0PK-148" target="rtvpqQw-Y-bNc0LHo0PK-128">
          <mxGeometry relative="1" as="geometry" />
        </mxCell>
        <mxCell id="rtvpqQw-Y-bNc0LHo0PK-223" style="edgeStyle=orthogonalEdgeStyle;rounded=0;orthogonalLoop=1;jettySize=auto;html=1;" edge="1" parent="1" source="rtvpqQw-Y-bNc0LHo0PK-148" target="rtvpqQw-Y-bNc0LHo0PK-222">
          <mxGeometry relative="1" as="geometry" />
        </mxCell>
        <mxCell id="rtvpqQw-Y-bNc0LHo0PK-148" value="Produce mp3&lt;div&gt;with VibeVioce&lt;br&gt;&lt;br&gt;&lt;/div&gt;" style="whiteSpace=wrap;html=1;aspect=fixed;fillColor=#60a917;fontColor=#ffffff;strokeColor=#2D7600;" vertex="1" parent="1">
          <mxGeometry x="998" y="1373.75" width="102.5" height="102.5" as="geometry" />
        </mxCell>
        <mxCell id="rtvpqQw-Y-bNc0LHo0PK-151" style="edgeStyle=orthogonalEdgeStyle;rounded=0;orthogonalLoop=1;jettySize=auto;html=1;entryX=0.717;entryY=1;entryDx=0;entryDy=0;entryPerimeter=0;" edge="1" parent="1" source="rtvpqQw-Y-bNc0LHo0PK-148" target="rtvpqQw-Y-bNc0LHo0PK-89">
          <mxGeometry relative="1" as="geometry" />
        </mxCell>
        <mxCell id="rtvpqQw-Y-bNc0LHo0PK-193" style="edgeStyle=orthogonalEdgeStyle;rounded=0;orthogonalLoop=1;jettySize=auto;html=1;" edge="1" parent="1" source="rtvpqQw-Y-bNc0LHo0PK-154" target="rtvpqQw-Y-bNc0LHo0PK-117">
          <mxGeometry relative="1" as="geometry" />
        </mxCell>
        <mxCell id="rtvpqQw-Y-bNc0LHo0PK-154" value="" style="swimlane;startSize=0;fillColor=#dae8fc;strokeColor=#6c8ebf;" vertex="1" parent="1">
          <mxGeometry x="-370" y="845" width="350" height="190" as="geometry" />
        </mxCell>
        <mxCell id="rtvpqQw-Y-bNc0LHo0PK-155" value="" style="swimlane;startSize=0;fillColor=#dae8fc;strokeColor=#6c8ebf;" vertex="1" parent="rtvpqQw-Y-bNc0LHo0PK-154">
          <mxGeometry x="10" y="50" width="150" height="110" as="geometry" />
        </mxCell>
        <mxCell id="rtvpqQw-Y-bNc0LHo0PK-156" value="" style="rounded=0;whiteSpace=wrap;html=1;fillColor=#dae8fc;strokeColor=#6c8ebf;" vertex="1" parent="rtvpqQw-Y-bNc0LHo0PK-155">
          <mxGeometry x="10" y="5.5" width="130" height="94.5" as="geometry" />
        </mxCell>
        <mxCell id="rtvpqQw-Y-bNc0LHo0PK-157" value="Presenter" style="text;html=1;align=center;verticalAlign=middle;whiteSpace=wrap;rounded=0;" vertex="1" parent="rtvpqQw-Y-bNc0LHo0PK-155">
          <mxGeometry x="30" y="5.5" width="92.5" height="25" as="geometry" />
        </mxCell>
        <mxCell id="rtvpqQw-Y-bNc0LHo0PK-159" value="Persona" style="text;html=1;align=center;verticalAlign=middle;whiteSpace=wrap;rounded=0;" vertex="1" parent="rtvpqQw-Y-bNc0LHo0PK-155">
          <mxGeometry x="70" y="25.5" width="60" height="30" as="geometry" />
        </mxCell>
        <mxCell id="rtvpqQw-Y-bNc0LHo0PK-160" value="Name" style="text;html=1;align=center;verticalAlign=middle;whiteSpace=wrap;rounded=0;" vertex="1" parent="rtvpqQw-Y-bNc0LHo0PK-155">
          <mxGeometry x="10" y="30.5" width="60" height="25" as="geometry" />
        </mxCell>
        <mxCell id="rtvpqQw-Y-bNc0LHo0PK-162" value="Reviews" style="text;html=1;align=center;verticalAlign=middle;whiteSpace=wrap;rounded=0;" vertex="1" parent="rtvpqQw-Y-bNc0LHo0PK-155">
          <mxGeometry x="17.5" y="60.5" width="60" height="30" as="geometry" />
        </mxCell>
        <mxCell id="rtvpqQw-Y-bNc0LHo0PK-165" value="Model" style="text;html=1;align=center;verticalAlign=middle;whiteSpace=wrap;rounded=0;" vertex="1" parent="rtvpqQw-Y-bNc0LHo0PK-155">
          <mxGeometry x="70" y="60.5" width="90" height="30" as="geometry" />
        </mxCell>
        <mxCell id="rtvpqQw-Y-bNc0LHo0PK-167" value="Presenters" style="text;html=1;align=center;verticalAlign=middle;whiteSpace=wrap;rounded=0;" vertex="1" parent="rtvpqQw-Y-bNc0LHo0PK-154">
          <mxGeometry x="120" y="15" width="92.5" height="25" as="geometry" />
        </mxCell>
        <mxCell id="rtvpqQw-Y-bNc0LHo0PK-185" value="" style="swimlane;startSize=0;fillColor=#dae8fc;strokeColor=#6c8ebf;" vertex="1" parent="rtvpqQw-Y-bNc0LHo0PK-154">
          <mxGeometry x="180" y="50" width="160" height="110" as="geometry" />
        </mxCell>
        <mxCell id="rtvpqQw-Y-bNc0LHo0PK-186" value="" style="rounded=0;whiteSpace=wrap;html=1;fillColor=#dae8fc;strokeColor=#6c8ebf;" vertex="1" parent="rtvpqQw-Y-bNc0LHo0PK-185">
          <mxGeometry x="10" y="5.5" width="140" height="94.5" as="geometry" />
        </mxCell>
        <mxCell id="rtvpqQw-Y-bNc0LHo0PK-187" value="Presenters" style="text;html=1;align=center;verticalAlign=middle;whiteSpace=wrap;rounded=0;" vertex="1" parent="rtvpqQw-Y-bNc0LHo0PK-185">
          <mxGeometry x="17.5" y="5.5" width="92.5" height="25" as="geometry" />
        </mxCell>
        <mxCell id="rtvpqQw-Y-bNc0LHo0PK-188" value="Persona" style="text;html=1;align=center;verticalAlign=middle;whiteSpace=wrap;rounded=0;" vertex="1" parent="rtvpqQw-Y-bNc0LHo0PK-185">
          <mxGeometry x="70" y="25.5" width="60" height="30" as="geometry" />
        </mxCell>
        <mxCell id="rtvpqQw-Y-bNc0LHo0PK-189" value="Name" style="text;html=1;align=center;verticalAlign=middle;whiteSpace=wrap;rounded=0;" vertex="1" parent="rtvpqQw-Y-bNc0LHo0PK-185">
          <mxGeometry x="10" y="30.5" width="60" height="25" as="geometry" />
        </mxCell>
        <mxCell id="rtvpqQw-Y-bNc0LHo0PK-190" value="Reviews" style="text;html=1;align=center;verticalAlign=middle;whiteSpace=wrap;rounded=0;" vertex="1" parent="rtvpqQw-Y-bNc0LHo0PK-185">
          <mxGeometry x="17.5" y="60.5" width="60" height="30" as="geometry" />
        </mxCell>
        <mxCell id="rtvpqQw-Y-bNc0LHo0PK-191" value="Model" style="text;html=1;align=center;verticalAlign=middle;whiteSpace=wrap;rounded=0;" vertex="1" parent="rtvpqQw-Y-bNc0LHo0PK-185">
          <mxGeometry x="60" y="60.5" width="90" height="30" as="geometry" />
        </mxCell>
        <mxCell id="rtvpqQw-Y-bNc0LHo0PK-220" style="edgeStyle=orthogonalEdgeStyle;rounded=0;orthogonalLoop=1;jettySize=auto;html=1;" edge="1" parent="1" source="rtvpqQw-Y-bNc0LHo0PK-194" target="rtvpqQw-Y-bNc0LHo0PK-123">
          <mxGeometry relative="1" as="geometry" />
        </mxCell>
        <mxCell id="rtvpqQw-Y-bNc0LHo0PK-194" value="" style="swimlane;startSize=0;fillColor=#dae8fc;strokeColor=#6c8ebf;" vertex="1" parent="1">
          <mxGeometry x="-530" y="1050" width="510" height="190" as="geometry" />
        </mxCell>
        <mxCell id="rtvpqQw-Y-bNc0LHo0PK-195" value="" style="swimlane;startSize=0;fillColor=#dae8fc;strokeColor=#6c8ebf;" vertex="1" parent="rtvpqQw-Y-bNc0LHo0PK-194">
          <mxGeometry x="10" y="50" width="240" height="110" as="geometry" />
        </mxCell>
        <mxCell id="rtvpqQw-Y-bNc0LHo0PK-196" value="" style="rounded=0;whiteSpace=wrap;html=1;fillColor=#dae8fc;strokeColor=#6c8ebf;" vertex="1" parent="rtvpqQw-Y-bNc0LHo0PK-195">
          <mxGeometry x="10" y="5.5" width="220" height="94.5" as="geometry" />
        </mxCell>
        <mxCell id="rtvpqQw-Y-bNc0LHo0PK-197" value="Writer" style="text;html=1;align=center;verticalAlign=middle;whiteSpace=wrap;rounded=0;" vertex="1" parent="rtvpqQw-Y-bNc0LHo0PK-195">
          <mxGeometry x="30" y="5.5" width="92.5" height="25" as="geometry" />
        </mxCell>
        <mxCell id="rtvpqQw-Y-bNc0LHo0PK-198" value="Persona" style="text;html=1;align=center;verticalAlign=middle;whiteSpace=wrap;rounded=0;" vertex="1" parent="rtvpqQw-Y-bNc0LHo0PK-195">
          <mxGeometry x="70" y="25.5" width="60" height="30" as="geometry" />
        </mxCell>
        <mxCell id="rtvpqQw-Y-bNc0LHo0PK-199" value="Name" style="text;html=1;align=center;verticalAlign=middle;whiteSpace=wrap;rounded=0;" vertex="1" parent="rtvpqQw-Y-bNc0LHo0PK-195">
          <mxGeometry x="10" y="30.5" width="60" height="25" as="geometry" />
        </mxCell>
        <mxCell id="rtvpqQw-Y-bNc0LHo0PK-200" value="Reviews" style="text;html=1;align=center;verticalAlign=middle;whiteSpace=wrap;rounded=0;" vertex="1" parent="rtvpqQw-Y-bNc0LHo0PK-195">
          <mxGeometry x="17.5" y="60.5" width="60" height="30" as="geometry" />
        </mxCell>
        <mxCell id="rtvpqQw-Y-bNc0LHo0PK-201" value="Model" style="text;html=1;align=center;verticalAlign=middle;whiteSpace=wrap;rounded=0;" vertex="1" parent="rtvpqQw-Y-bNc0LHo0PK-195">
          <mxGeometry x="70" y="60.5" width="90" height="30" as="geometry" />
        </mxCell>
        <mxCell id="rtvpqQw-Y-bNc0LHo0PK-211" value="Scripts" style="text;html=1;align=center;verticalAlign=middle;whiteSpace=wrap;rounded=0;" vertex="1" parent="rtvpqQw-Y-bNc0LHo0PK-195">
          <mxGeometry x="140" y="25.5" width="60" height="30" as="geometry" />
        </mxCell>
        <mxCell id="rtvpqQw-Y-bNc0LHo0PK-202" value="Writers" style="text;html=1;align=center;verticalAlign=middle;whiteSpace=wrap;rounded=0;" vertex="1" parent="rtvpqQw-Y-bNc0LHo0PK-194">
          <mxGeometry x="120" y="10" width="92.5" height="25" as="geometry" />
        </mxCell>
        <mxCell id="rtvpqQw-Y-bNc0LHo0PK-212" value="" style="swimlane;startSize=0;fillColor=#dae8fc;strokeColor=#6c8ebf;" vertex="1" parent="rtvpqQw-Y-bNc0LHo0PK-194">
          <mxGeometry x="260" y="50" width="240" height="110" as="geometry" />
        </mxCell>
        <mxCell id="rtvpqQw-Y-bNc0LHo0PK-213" value="" style="rounded=0;whiteSpace=wrap;html=1;fillColor=#dae8fc;strokeColor=#6c8ebf;" vertex="1" parent="rtvpqQw-Y-bNc0LHo0PK-212">
          <mxGeometry x="10" y="5.5" width="220" height="94.5" as="geometry" />
        </mxCell>
        <mxCell id="rtvpqQw-Y-bNc0LHo0PK-214" value="Writer" style="text;html=1;align=center;verticalAlign=middle;whiteSpace=wrap;rounded=0;" vertex="1" parent="rtvpqQw-Y-bNc0LHo0PK-212">
          <mxGeometry x="30" y="5.5" width="92.5" height="25" as="geometry" />
        </mxCell>
        <mxCell id="rtvpqQw-Y-bNc0LHo0PK-215" value="Persona" style="text;html=1;align=center;verticalAlign=middle;whiteSpace=wrap;rounded=0;" vertex="1" parent="rtvpqQw-Y-bNc0LHo0PK-212">
          <mxGeometry x="70" y="25.5" width="60" height="30" as="geometry" />
        </mxCell>
        <mxCell id="rtvpqQw-Y-bNc0LHo0PK-216" value="Name" style="text;html=1;align=center;verticalAlign=middle;whiteSpace=wrap;rounded=0;" vertex="1" parent="rtvpqQw-Y-bNc0LHo0PK-212">
          <mxGeometry x="10" y="30.5" width="60" height="25" as="geometry" />
        </mxCell>
        <mxCell id="rtvpqQw-Y-bNc0LHo0PK-217" value="Reviews" style="text;html=1;align=center;verticalAlign=middle;whiteSpace=wrap;rounded=0;" vertex="1" parent="rtvpqQw-Y-bNc0LHo0PK-212">
          <mxGeometry x="17.5" y="60.5" width="60" height="30" as="geometry" />
        </mxCell>
        <mxCell id="rtvpqQw-Y-bNc0LHo0PK-218" value="Model" style="text;html=1;align=center;verticalAlign=middle;whiteSpace=wrap;rounded=0;" vertex="1" parent="rtvpqQw-Y-bNc0LHo0PK-212">
          <mxGeometry x="70" y="60.5" width="90" height="30" as="geometry" />
        </mxCell>
        <mxCell id="rtvpqQw-Y-bNc0LHo0PK-219" value="Scripts" style="text;html=1;align=center;verticalAlign=middle;whiteSpace=wrap;rounded=0;" vertex="1" parent="rtvpqQw-Y-bNc0LHo0PK-212">
          <mxGeometry x="140" y="25.5" width="60" height="30" as="geometry" />
        </mxCell>
        <mxCell id="rtvpqQw-Y-bNc0LHo0PK-222" value="END" style="rounded=1;whiteSpace=wrap;html=1;fillColor=#a20025;strokeColor=#6F0000;fontColor=#ffffff;" vertex="1" parent="1">
          <mxGeometry x="989.25" y="1550" width="120" height="60" as="geometry" />
        </mxCell>
      </root>
    </mxGraphModel>
  </diagram>
</mxfile>
